<svg width="63" height="63" xmlns="http://www.w3.org/2000/svg">

 <title/>
 <g>
  <title>background</title>
  <rect fill="none" id="canvas_background" height="402" width="582" y="-1" x="-1"/>
 </g>
 <g>
  <title>Layer 1</title>
  <path fill="#1928ef" id="svg_1" d="m45,46.05a0.5,0.5 0 0 1 -0.5,-0.5l0,-21.82l-6.73,-7.68l-13.77,0a2.5,2.5 0 0 0 -2.5,2.5l0,7a0.5,0.5 0 0 1 -1,0l0,-7a3.5,3.5 0 0 1 3.5,-3.5l14.18,0l7.27,8.31l0,22.19a0.5,0.5 0 0 1 -0.45,0.5zm-2,-22.05a0.5,0.5 0 0 0 -0.5,-0.5l-3.26,0a0.78,0.78 0 0 1 -0.79,-0.78l0,-3.89a0.5,0.5 0 0 0 -1,0l0,3.86a1.79,1.79 0 0 0 1.79,1.78l3.21,0a0.5,0.5 0 0 0 0.55,-0.47zm-15.82,12.76a0.49,0.49 0 0 0 0.34,-0.12a0.38,0.38 0 0 0 0.15,-0.29a0.35,0.35 0 0 0 -0.15,-0.29a0.49,0.49 0 0 0 -0.34,-0.12a0.51,0.51 0 0 0 -0.35,0.12a0.37,0.37 0 0 0 -0.14,0.29a0.38,0.38 0 0 0 0.14,0.29a0.51,0.51 0 0 0 0.35,0.12zm1.48,0a0.52,0.52 0 0 0 0.34,-0.12a0.4,0.4 0 0 0 0.14,-0.29a0.37,0.37 0 0 0 -0.14,-0.29a0.52,0.52 0 0 0 -0.34,-0.12a0.54,0.54 0 0 0 -0.36,0.12a0.37,0.37 0 0 0 -0.14,0.29a0.38,0.38 0 0 0 0.14,0.29a0.54,0.54 0 0 0 0.36,0.12zm1.47,0a0.52,0.52 0 0 0 0.34,-0.12a0.4,0.4 0 0 0 0.14,-0.29a0.37,0.37 0 0 0 -0.14,-0.29a0.52,0.52 0 0 0 -0.34,-0.12a0.51,0.51 0 0 0 -0.35,0.12a0.34,0.34 0 0 0 -0.14,0.29a0.35,0.35 0 0 0 0.14,0.29a0.51,0.51 0 0 0 0.35,0.12z" class="cls-1"/>
 </g>
</svg>