<svg width="63" height="63" xmlns="http://www.w3.org/2000/svg">

 <title/>
 <g>
  <title>background</title>
  <rect fill="none" id="canvas_background" height="402" width="582" y="-1" x="-1"/>
 </g>
 <g>
  <title>Layer 1</title>
  <path fill="#1928ef" id="svg_1" d="m45,46.177219a0.5,0.5 0 0 1 -0.5,-0.5l0,-21.82l-6.73,-7.68l-13.77,0a2.5,2.5 0 0 0 -2.5,2.5l0,7a0.5,0.5 0 0 1 -1,0l0,-7a3.5,3.5 0 0 1 3.5,-3.5l14.18,0l7.27,8.31l0,22.19a0.5,0.5 0 0 1 -0.45,0.5zm-2,-22.05a0.5,0.5 0 0 0 -0.5,-0.5l-3.26,0a0.79,0.79 0 0 1 -0.79,-0.79l0,-3.88a0.5,0.5 0 0 0 -1,0l0,3.86a1.79,1.79 0 0 0 1.79,1.79l3.21,0a0.5,0.5 0 0 0 0.55,-0.48zm-20.46,11.64a0.28,0.28 0 0 0 0.21,0.08l2,0l0,1a0.22,0.22 0 0 0 0.12,0.19a0.73,0.73 0 0 0 0.3,0.07a0.66,0.66 0 0 0 0.3,-0.07a0.21,0.21 0 0 0 0.13,-0.19l0,-1l0.4,0a0.26,0.26 0 0 0 0.2,-0.11a0.4,0.4 0 0 0 0.09,-0.25a0.45,0.45 0 0 0 -0.08,-0.26a0.25,0.25 0 0 0 -0.21,-0.1l-0.39,0l0,-1a0.22,0.22 0 0 0 -0.12,-0.2a0.75,0.75 0 0 0 -0.31,-0.06c-0.28,0 -0.42,0.08 -0.42,0.26l0,1l-1.22,0l1.65,-3.08a0.24,0.24 0 0 0 0,-0.12a0.28,0.28 0 0 0 -0.14,-0.22a0.54,0.54 0 0 0 -0.28,-0.09a0.4,0.4 0 0 0 -0.37,0.22l-1.9,3.56a0.32,0.32 0 0 0 0,0.16a0.29,0.29 0 0 0 0.04,0.21zm4.65,1a2.38,2.38 0 0 0 2.64,0a1.54,1.54 0 0 0 0.49,-1.27l0,-2.22a1.53,1.53 0 0 0 -0.49,-1.26a2.33,2.33 0 0 0 -2.64,0a1.56,1.56 0 0 0 -0.48,1.26l0,2.18a1.57,1.57 0 0 0 0.48,1.27l0,0.04zm0.36,-3.45a0.85,0.85 0 0 1 1,-1a1,1 0 0 1 0.71,0.24a0.94,0.94 0 0 1 0.25,0.72l0,2.18a1,1 0 0 1 -0.25,0.73a1,1 0 0 1 -0.71,0.24a0.85,0.85 0 0 1 -1,-1l0,-2.11zm1,1.41a0.37,0.37 0 0 0 0.26,-0.09a0.3,0.3 0 0 0 0.09,-0.23a0.29,0.29 0 0 0 -0.09,-0.22a0.37,0.37 0 0 0 -0.26,-0.09a0.39,0.39 0 0 0 -0.26,0.09a0.27,0.27 0 0 0 -0.1,0.22a0.28,0.28 0 0 0 0.1,0.23a0.39,0.39 0 0 0 0.23,0.05l0.03,0.04zm2.28,1.08a0.29,0.29 0 0 0 0.22,0.08l2,0l0,1a0.23,0.23 0 0 0 0.13,0.19a0.66,0.66 0 0 0 0.3,0.07a0.73,0.73 0 0 0 0.3,-0.07a0.22,0.22 0 0 0 0.12,-0.19l0,-1l0.39,0a0.24,0.24 0 0 0 0.2,-0.11a0.4,0.4 0 0 0 0.09,-0.25a0.44,0.44 0 0 0 -0.07,-0.26a0.25,0.25 0 0 0 -0.22,-0.11l-0.39,0l0,-1.03a0.22,0.22 0 0 0 -0.12,-0.2a0.67,0.67 0 0 0 -0.3,-0.06c-0.28,0 -0.43,0.08 -0.43,0.26l0,1l-1.24,0l1.65,-3.08a0.41,0.41 0 0 0 0,-0.12a0.27,0.27 0 0 0 -0.15,-0.22a0.51,0.51 0 0 0 -0.28,-0.09a0.4,0.4 0 0 0 -0.36,0.22l-1.94,3.57a0.33,0.33 0 0 0 -0.05,0.16a0.29,0.29 0 0 0 0.12,0.2l0.03,0.04z" class="cls-1"/>
 </g>
</svg>